<svg width="16" height="17" viewBox="0 0 16 17" fill="none" xmlns="http://www.w3.org/2000/svg">
<path fill-rule="evenodd" clip-rule="evenodd" d="M1.64598 5.14601C1.69242 5.09945 1.7476 5.0625 1.80834 5.0373C1.86909 5.01209 1.93421 4.99911 1.99998 4.99911C2.06575 4.99911 2.13087 5.01209 2.19161 5.0373C2.25236 5.0625 2.30753 5.09945 2.35398 5.14601L7.99998 10.793L13.646 5.14601C13.6925 5.09952 13.7477 5.06264 13.8084 5.03749C13.8691 5.01233 13.9342 4.99938 14 4.99938C14.0657 4.99938 14.1308 5.01233 14.1916 5.03749C14.2523 5.06264 14.3075 5.09952 14.354 5.14601C14.4005 5.1925 14.4373 5.24769 14.4625 5.30842C14.4877 5.36916 14.5006 5.43426 14.5006 5.50001C14.5006 5.56575 14.4877 5.63085 14.4625 5.69159C14.4373 5.75233 14.4005 5.80752 14.354 5.85401L8.35398 11.854C8.30753 11.9006 8.25236 11.9375 8.19161 11.9627C8.13087 11.9879 8.06575 12.0009 7.99998 12.0009C7.93421 12.0009 7.86909 11.9879 7.80834 11.9627C7.7476 11.9375 7.69242 11.9006 7.64598 11.854L1.64598 5.85401C1.59942 5.80756 1.56247 5.75239 1.53727 5.69164C1.51206 5.6309 1.49908 5.56578 1.49908 5.50001C1.49908 5.43424 1.51206 5.36912 1.53727 5.30837C1.56247 5.24763 1.59942 5.19245 1.64598 5.14601Z" fill="black"/>
</svg>
