<svg width="14" height="15" viewBox="0 0 14 15" fill="none" xmlns="http://www.w3.org/2000/svg">
<path d="M7.00004 0.333344C10.682 0.333344 13.6667 3.31801 13.6667 7.00001C13.6667 10.682 10.682 13.6667 7.00004 13.6667C3.31804 13.6667 0.333374 10.682 0.333374 7.00001C0.333374 3.31801 3.31804 0.333344 7.00004 0.333344ZM7.00004 1.66668C5.58555 1.66668 4.229 2.22858 3.2288 3.22877C2.22861 4.22897 1.66671 5.58552 1.66671 7.00001C1.66671 8.4145 2.22861 9.77105 3.2288 10.7712C4.229 11.7714 5.58555 12.3333 7.00004 12.3333C8.41453 12.3333 9.77108 11.7714 10.7713 10.7712C11.7715 9.77105 12.3334 8.4145 12.3334 7.00001C12.3334 5.58552 11.7715 4.22897 10.7713 3.22877C9.77108 2.22858 8.41453 1.66668 7.00004 1.66668ZM7.00004 9.66668C7.17685 9.66668 7.34642 9.73691 7.47144 9.86194C7.59647 9.98696 7.66671 10.1565 7.66671 10.3333C7.66671 10.5102 7.59647 10.6797 7.47144 10.8047C7.34642 10.9298 7.17685 11 7.00004 11C6.82323 11 6.65366 10.9298 6.52864 10.8047C6.40361 10.6797 6.33337 10.5102 6.33337 10.3333C6.33337 10.1565 6.40361 9.98696 6.52864 9.86194C6.65366 9.73691 6.82323 9.66668 7.00004 9.66668ZM7.00004 3.33334C7.56156 3.33336 8.10555 3.52891 8.53856 3.88641C8.97157 4.24391 9.26658 4.74103 9.37291 5.2924C9.47924 5.84376 9.39025 6.41493 9.12123 6.90782C8.85221 7.4007 8.41995 7.78452 7.89871 7.99334C7.8215 8.02173 7.75191 8.06759 7.69537 8.12734C7.66604 8.16068 7.66137 8.20334 7.66204 8.24734L7.66671 8.33334C7.66652 8.50326 7.60145 8.6667 7.48481 8.79026C7.36816 8.91381 7.20874 8.98817 7.03911 8.99812C6.86948 9.00808 6.70245 8.95289 6.57215 8.84383C6.44185 8.73477 6.35811 8.58007 6.33804 8.41134L6.33337 8.33334V8.16668C6.33337 7.39801 6.95337 6.93668 7.40271 6.75601C7.58558 6.68298 7.74511 6.56152 7.86416 6.40467C7.98322 6.24781 8.05729 6.06149 8.07844 5.86571C8.09958 5.66994 8.067 5.47209 7.98419 5.29344C7.90138 5.11478 7.77146 4.96205 7.6084 4.85166C7.44533 4.74127 7.25528 4.67738 7.05864 4.66686C6.86201 4.65633 6.66622 4.69957 6.4923 4.79192C6.31839 4.88428 6.17291 5.02227 6.0715 5.19106C5.97009 5.35986 5.91658 5.55309 5.91671 5.75001C5.91671 5.92682 5.84647 6.09639 5.72144 6.22141C5.59642 6.34644 5.42685 6.41668 5.25004 6.41668C5.07323 6.41668 4.90366 6.34644 4.77864 6.22141C4.65361 6.09639 4.58337 5.92682 4.58337 5.75001C4.58337 5.10907 4.83799 4.49438 5.2912 4.04117C5.74441 3.58796 6.3591 3.33334 7.00004 3.33334Z" fill="#0B0B0B"/>
</svg>
