<svg width="23" height="23" viewBox="0 0 23 23" fill="none" xmlns="http://www.w3.org/2000/svg">
<g clip-path="url(#clip0_12_91)">
<path d="M22.2725 11.44C22.2725 5.46474 17.4285 0.620728 11.4532 0.620728C5.47792 0.620728 0.633911 5.46474 0.633911 11.44C0.633911 16.8402 4.5904 21.3163 9.76271 22.1279V14.5675H7.01562V11.44H9.76271V9.05641C9.76271 6.34482 11.378 4.84702 13.8494 4.84702C15.0331 4.84702 16.2712 5.05834 16.2712 5.05834V7.7209H14.907C13.5629 7.7209 13.1437 8.55492 13.1437 9.41057V11.44H16.1444L15.6647 14.5675H13.1437V22.1279C18.3161 21.3163 22.2725 16.8403 22.2725 11.44Z" fill="#1877F2"/>
<path d="M15.6649 14.5675L16.1445 11.4401H13.1439V9.4106C13.1439 8.55486 13.563 7.72093 14.9071 7.72093H16.2713V5.05836C16.2713 5.05836 15.0332 4.84705 13.8494 4.84705C11.3781 4.84705 9.76284 6.34484 9.76284 9.05644V11.4401H7.01575V14.5675H9.76284V22.1279C10.3221 22.2156 10.8873 22.2595 11.4534 22.2594C12.0194 22.2596 12.5846 22.2156 13.1439 22.1279V14.5675H15.6649Z" fill="white"/>
</g>
<defs>
<clipPath id="clip0_12_91">
<rect width="21.6386" height="21.6386" fill="white" transform="translate(0.633911 0.620728)"/>
</clipPath>
</defs>
</svg>
