<svg width="23" height="23" viewBox="0 0 23 23" fill="none" xmlns="http://www.w3.org/2000/svg">
<path d="M20.2465 9.67424H19.5202V9.63683H11.4057V13.2433H16.5012C15.7578 15.3427 13.7603 16.8497 11.4057 16.8497C8.41826 16.8497 5.99609 14.4275 5.99609 11.44C5.99609 8.45256 8.41826 6.03039 11.4057 6.03039C12.7848 6.03039 14.0393 6.55062 14.9946 7.40038L17.5448 4.85018C15.9345 3.34945 13.7806 2.42395 11.4057 2.42395C6.42661 2.42395 2.38965 6.46091 2.38965 11.44C2.38965 16.4192 6.42661 20.4561 11.4057 20.4561C16.3849 20.4561 20.4218 16.4192 20.4218 11.44C20.4218 10.8355 20.3596 10.2454 20.2465 9.67424Z" fill="#FFC107"/>
<path d="M3.42896 7.2435L6.39119 9.41593C7.19272 7.43149 9.13389 6.03039 11.4055 6.03039C12.7845 6.03039 14.0391 6.55062 14.9944 7.40038L17.5446 4.85018C15.9343 3.34945 13.7803 2.42395 11.4055 2.42395C7.94241 2.42395 4.93915 4.37909 3.42896 7.2435Z" fill="#FF3D00"/>
<path d="M11.4055 20.4561C13.7343 20.4561 15.8504 19.5649 17.4503 18.1155L14.6598 15.7542C13.7242 16.4658 12.5809 16.8506 11.4055 16.8497C9.0604 16.8497 7.06919 15.3544 6.31905 13.2676L3.37891 15.5329C4.87107 18.4527 7.90138 20.4561 11.4055 20.4561Z" fill="#4CAF50"/>
<path d="M20.2461 9.67426H19.5199V9.63684H11.4054V13.2433H16.5008C16.1453 14.2424 15.5047 15.1156 14.6584 15.7547L14.6598 15.7538L17.4502 18.1151C17.2528 18.2945 20.4215 15.9481 20.4215 11.4401C20.4215 10.8355 20.3593 10.2454 20.2461 9.67426Z" fill="#1976D2"/>
</svg>
