<svg width="23" height="23" viewBox="0 0 23 23" fill="none" xmlns="http://www.w3.org/2000/svg">
<path d="M20.1468 1.12789H2.56541C2.1665 1.12383 1.78227 1.27818 1.49704 1.55708C1.2118 1.83598 1.04885 2.21664 1.04395 2.61554V20.2679C1.04974 20.6662 1.21308 21.046 1.49822 21.3242C1.78336 21.6024 2.16708 21.7563 2.56541 21.7522H20.1468C20.5457 21.7554 20.9297 21.6005 21.2148 21.3214C21.4999 21.0423 21.6629 20.6618 21.6683 20.2629V2.61047C21.6611 2.21274 21.4973 1.83389 21.2124 1.55627C20.9275 1.27865 20.5446 1.1247 20.1468 1.12789Z" fill="#0076B2"/>
<path d="M4.09793 8.85868H7.15946V18.7093H4.09793V8.85868ZM5.62954 3.95618C5.98068 3.95618 6.32393 4.06032 6.61587 4.25544C6.90781 4.45056 7.13533 4.72789 7.26962 5.05233C7.40392 5.37678 7.43898 5.73377 7.37035 6.07814C7.30172 6.42251 7.1325 6.73879 6.88408 6.98696C6.63567 7.23514 6.31923 7.40406 5.97479 7.47236C5.63036 7.54066 5.2734 7.50527 4.94908 7.37066C4.62477 7.23605 4.34766 7.00828 4.15282 6.71615C3.95798 6.42402 3.85416 6.08067 3.85449 5.72953C3.85494 5.25905 4.04215 4.808 4.37499 4.47548C4.70783 4.14296 5.15906 3.95618 5.62954 3.95618ZM9.07988 8.85868H12.0146V10.2111H12.0552C12.4643 9.43684 13.4617 8.62032 14.9511 8.62032C18.0515 8.61355 18.6262 10.654 18.6262 13.2997V18.7093H15.5647V13.9167C15.5647 12.7756 15.5444 11.3065 13.9739 11.3065C12.4034 11.3065 12.1363 12.5508 12.1363 13.8423V18.7093H9.07988V8.85868Z" fill="white"/>
</svg>
